<svg width="115" height="24" viewBox="0 0 115 24" fill="none" xmlns="http://www.w3.org/2000/svg">
<g clip-path="url(#clip0_64_183)">
<path d="M24.6926 24H24.8635L32.9804 3.68571C33.7494 1.8 34.5183 0.771429 35.2873 0.342857V0.0857143H30.4171V0.257143C31.4424 0.857143 31.6988 2.4 31.0152 4.11429L26.0596 16.7143L19.1389 0H18.968L11.7909 16.6286L6.57899 3.51429C5.9809 1.97143 6.06634 0.857143 7.17708 0.257143V0.0857143H0V0.257143C0.768973 0.6 1.36706 1.54286 2.05059 3.17143L10.5947 24H10.7656L17.8573 7.11429L24.778 24H24.6926ZM77.4954 12.2571V5.74286H84.4161C87.5774 5.74286 88.6882 6.25714 89.8844 7.88571H90.0552C90.0552 7.8 89.7135 4.11429 89.7135 4.11429H72.4543V4.28571C73.4796 4.97143 73.8214 5.82857 73.8214 7.2V20.2286C73.8214 21.6 73.5651 22.5429 72.4543 23.1429V23.3143H90.5679L91.2514 19.3714H91.0805C89.9698 20.8286 88.5173 21.6857 85.4414 21.6857H77.5808V13.8857H82.8782C85.1851 13.8857 86.2104 14.2286 86.8939 15.2571H87.0648V11.0571H86.8939C86.2958 12 85.1851 12.4286 82.8782 12.4286H77.5808L77.4954 12.2571ZM100.565 23.1429V23.3143H107.144V23.1429C106.118 22.4571 105.691 21.5143 105.691 19.8857V15.3429L111.501 7.02857C112.526 5.48571 113.381 4.54286 114.15 4.28571V4.11429H109.023V4.28571C109.963 4.88571 110.049 6.08571 109.109 7.54286L104.837 13.7143L100.223 6.77143C99.4538 5.74286 99.6247 4.71429 100.479 4.28571V4.11429H93.2166V4.28571C94.071 4.62857 94.6691 5.14286 95.5235 6.51429L101.932 15.7714V19.9714C102.017 21.6 101.675 22.5429 100.479 23.2286L100.565 23.1429ZM68.6095 23.3143L69.5493 19.2857H69.3784C68.2677 20.9143 66.4734 21.6857 63.9956 21.6857H56.5622V7.45714C56.5622 5.82857 56.904 4.88571 58.1002 4.2V4.02857H51.5212V4.2C52.5465 4.88571 52.8882 5.74286 52.8882 7.11429V20.1429C52.8882 21.5143 52.6319 22.4571 51.5212 23.0571V23.2286H68.6095V23.3143ZM39.3885 20.0571C39.3885 21.6 39.1322 22.5429 37.936 23.1429V23.3143H44.515V23.1429C43.4897 22.5429 43.0625 21.6 43.0625 20.0571V7.28571C43.0625 5.82857 43.3188 4.88571 44.515 4.2V4.02857H38.0214V4.2C39.0467 4.88571 39.4739 5.82857 39.4739 7.28571V20.0571H39.3885Z" fill="white"/>
</g>
<defs>
<clipPath id="clip0_64_183">
<rect width="114.321" height="24" fill="white"/>
</clipPath>
</defs>
</svg>
